<?xml version="1.0" standalone="no"?>
<!DOCTYPE svg PUBLIC "-//W3C//DTD SVG 20010904//EN"
 "http://www.w3.org/TR/2001/REC-SVG-20010904/DTD/svg10.dtd">
<svg version="1.0" xmlns="http://www.w3.org/2000/svg"
 width="274.000000pt" height="184.000000pt" viewBox="0 0 274.000000 184.000000"
 preserveAspectRatio="xMidYMid meet">

<g transform="translate(0.000000,184.000000) scale(0.100000,-0.100000)"
fill="#000000" stroke="none">
<path d="M1202 1731 c-185 -64 -329 -266 -373 -524 -17 -102 -6 -352 20 -452
14 -54 21 -111 21 -176 0 -116 17 -178 67 -243 67 -87 126 -118 310 -163 81
-20 140 -6 200 50 l42 39 46 -27 c55 -33 124 -37 174 -11 59 31 176 122 205
160 15 20 39 62 54 94 24 51 27 67 25 157 -1 55 -2 182 -2 282 -1 176 -10 277
-33 355 -6 21 -15 35 -20 32 -5 -3 -6 5 -3 18 7 30 -50 151 -110 228 -79 103
-178 160 -321 185 -118 20 -236 19 -302 -4z m317 -113 c64 -31 151 -121 191
-200 19 -36 38 -64 42 -62 4 3 5 -1 3 -8 -3 -7 6 -52 21 -98 24 -81 46 -270
30 -270 -4 0 -34 9 -67 20 -72 25 -115 20 -179 -21 -60 -37 -115 -111 -147
-198 l-26 -71 -39 33 c-89 73 -126 98 -176 117 -110 42 -209 15 -269 -73 -17
-26 -34 -44 -36 -40 -9 17 -26 132 -31 203 -4 74 -4 76 20 78 15 1 24 -4 24
-12 0 -8 12 -17 28 -19 24 -4 24 -4 -8 -7 l-35 -3 40 -7 40 -7 -43 -2 -43 -1
16 -30 c9 -16 21 -30 27 -30 7 0 23 -12 36 -27 17 -21 25 -24 31 -14 5 7 11
12 15 12 3 -1 9 -1 14 -1 4 0 8 64 8 143 2 165 16 232 74 353 100 209 291 314
439 242z m156 -37 c-2 -12 5 -23 21 -31 13 -8 24 -18 24 -24 0 -6 4 -5 9 2 6
10 10 10 20 -2 9 -11 9 -16 0 -22 -8 -5 -9 -3 -4 6 6 9 4 11 -4 5 -9 -5 -10
-10 -2 -18 15 -15 14 -30 -1 -21 -7 5 -8 3 -3 -6 6 -10 11 -9 22 6 14 19 15
19 28 -1 8 -11 21 -27 29 -35 9 -10 13 -25 9 -38 -4 -18 -2 -21 12 -16 12 5
16 3 13 -7 -2 -7 -15 -16 -29 -20 -20 -6 -18 -7 13 -8 45 -1 70 -10 62 -22 -3
-5 0 -9 6 -9 6 0 8 -5 4 -11 -3 -6 0 -15 7 -20 9 -6 -3 -9 -33 -9 -27 0 -48
-4 -48 -10 0 -5 8 -10 18 -10 11 0 13 -3 5 -8 -6 -4 -18 -20 -26 -36 l-15 -28
-10 44 c-31 131 -86 270 -125 317 -11 14 -14 25 -8 46 3 15 9 2 6 -14z m115
-47 c0 -8 -19 -13 -24 -6 -3 5 1 9 9 9 8 0 15 -2 15 -3z m-910 -417 c10 -4 8
-6 -7 -6 -16 -1 -23 5 -23 17 0 10 3 13 8 6 4 -6 14 -14 22 -17z m-43 -49 c-3
-7 -5 -2 -5 12 0 14 2 19 5 13 2 -7 2 -19 0 -25z m818 -148 c-10 -11 -13 -20
-8 -20 6 0 16 7 23 15 7 8 17 15 23 15 6 0 0 -12 -14 -27 -16 -19 -18 -23 -4
-12 31 25 49 34 41 21 -4 -7 -3 -12 2 -12 5 0 9 -6 10 -12 1 -7 4 -25 8 -40 5
-22 -1 -34 -36 -72 -38 -41 -72 -63 -55 -36 3 6 1 10 -5 10 -7 0 -9 7 -6 16 3
8 2 13 -3 10 -17 -11 -18 44 0 70 21 33 15 61 -10 42 -9 -7 -3 2 13 20 17 18
32 32 34 32 3 0 -3 -9 -13 -20z m-15 -44 c0 -2 -8 -10 -17 -17 -16 -13 -17
-12 -4 4 13 16 21 21 21 13z m150 -53 c-11 -17 -11 -17 -6 0 3 10 6 24 7 30 0
9 2 9 5 0 3 -7 0 -20 -6 -30z m-34 -80 c-15 -27 -38 -62 -52 -78 l-26 -30 22
35 c11 19 33 56 48 82 35 61 42 53 8 -9z"/>
</g>
</svg>
