<?xml version="1.0" encoding="UTF-8"?>
<svg version="1.1" xmlns="http://www.w3.org/2000/svg" width="320" height="204">
<path d="M0 0 C9.85328547 1.43883466 18.55016944 8.0216549 25.9765625 14.30078125 C28.09376555 16.14216896 28.09376555 16.14216896 31 18 C26.1163329 12.09563077 20.8280757 6.96906227 15 2 C15.99 1.67 16.98 1.34 18 1 C21.96119091 3.6239736 25.44418463 6.85543549 29 10 C29.63550781 10.55042969 30.27101562 11.10085938 30.92578125 11.66796875 C48.08458036 27.59821422 59.14072502 52.63877043 60.12280273 75.90991211 C60.86436346 106.71060306 56.08039959 132.98740805 34.83984375 156.37890625 C29.71967851 161.71579806 24.19587195 165.97721049 18 170 C18.99128906 169.71382812 19.98257813 169.42765625 21.00390625 169.1328125 C24.9705274 168.00177192 28.94586756 166.91428713 32.9375 165.875 C33.93426758 165.60236328 33.93426758 165.60236328 34.95117188 165.32421875 C45.89337842 162.50110823 57.22129648 164.29575628 67 170 C67 170.99 67 171.98 67 173 C67.6084375 173.14695313 68.216875 173.29390625 68.84375 173.4453125 C74.84925729 174.98201584 80.64065093 176.88338283 86.4375 179.0625 C87.46617187 179.44849365 87.46617187 179.44849365 88.515625 179.84228516 C91.76261892 181.08072194 94.93321166 182.36071928 98 184 C98 184.66 98 185.32 98 186 C97.12859375 185.84402344 96.2571875 185.68804687 95.359375 185.52734375 C77.11937872 182.54656514 63.1089613 186.86725664 46.5625 194.5 C20.16635149 206.25079369 -0.73711105 205.47826141 -28.69677734 198.76953125 C-33.60621139 197.62581092 -38.54496997 196.67254865 -43.5 195.75 C-44.35247314 195.58862549 -45.20494629 195.42725098 -46.08325195 195.26098633 C-50.66979998 194.40149303 -55.2610643 193.63813468 -59.875 192.9375 C-64.30461858 192.22002657 -67.91104427 190.89844373 -72 189 C-75.97787354 187.5993403 -79.99006108 186.30556151 -84 185 C-85.75049247 184.41814616 -87.50055266 183.8349887 -89.25 183.25 C-90.4875 182.8375 -91.725 182.425 -93 182 C-92.67 180.68 -92.34 179.36 -92 178 C-84.78794723 177.7022547 -77.74186751 178.25464833 -70.578125 179.0078125 C-69.65467285 179.10263916 -68.7312207 179.19746582 -67.77978516 179.29516602 C-65.51958694 179.52761848 -63.25968545 179.76262333 -61 180 C-67.4889307 177.89049688 -73.9813894 175.79213328 -80.47631836 173.70117188 C-82.6815568 172.98981505 -84.88600083 172.27599027 -87.08959961 171.55957031 C-90.27247502 170.52526185 -93.45818141 169.50011015 -96.64453125 168.4765625 C-97.61582474 168.15877838 -98.58711823 167.84099426 -99.58784485 167.51358032 C-120.02568987 160.9883834 -140.85383471 161.29118214 -162 163.3125 C-163.47056934 163.44759318 -164.94119235 163.58210325 -166.41186523 163.71606445 C-173.87282248 164.40059072 -181.32949661 165.12744207 -188.78515625 165.8671875 C-189.48748383 165.93650986 -190.1898114 166.00583221 -190.91342163 166.07725525 C-194.24708211 166.40653718 -197.57994264 166.74095726 -200.91210938 167.08520508 C-207.2983479 167.72684131 -213.58197463 168.35395978 -220 168 C-220.66 167.34 -221.32 166.68 -222 166 C-222 165.01 -222 164.02 -222 163 C-212.58997722 160.70387244 -212.58997722 160.70387244 -208 161 C-208 160.34 -208 159.68 -208 159 C-198.58997722 156.70387244 -198.58997722 156.70387244 -194 157 C-194 156.34 -194 155.68 -194 155 C-189.38 154.01 -184.76 153.02 -180 152 C-180 151.67 -180 151.34 -180 151 C-178.78352783 150.90855713 -177.56705566 150.81711426 -176.3137207 150.72290039 C-161.74953914 149.53300774 -147.53909548 147.13524802 -133.1875 144.4375 C-129.84486661 143.81684612 -126.50177405 143.19877594 -123.15827942 142.58277893 C-121.10192655 142.2031365 -119.04612816 141.82047299 -116.99101257 141.43418884 C-90.78853585 136.55539771 -66.89688744 138.91952088 -42 148 C-42.27714844 147.32453125 -42.55429688 146.6490625 -42.83984375 145.953125 C-43.20207031 145.06109375 -43.56429687 144.1690625 -43.9375 143.25 C-44.47697266 141.92742187 -44.47697266 141.92742187 -45.02734375 140.578125 C-49.02573249 129.97998617 -48.89675443 114.65244802 -44.26953125 104.3515625 C-43.64111328 103.18753906 -43.64111328 103.18753906 -43 102 C-42.52949219 101.12085937 -42.05898437 100.24171875 -41.57421875 99.3359375 C-34.85616744 87.56632823 -26.19755277 80.64701517 -14 75 C-27.9855043 80.26787329 -39.47946217 88.1409201 -46.421875 101.796875 C-52.15811792 114.8215207 -52.13192916 126.09562693 -51 140 C-55.56131838 135.43868162 -55.18207008 127.71794041 -55.3125 121.625 C-55.0521443 107.08847328 -49.78731521 93.51409335 -39.6875 83 C-32.58984164 76.38848262 -25.16596424 72.05532141 -16 69 C-33.61339255 74.14480538 -45.30867579 82.73171539 -54.25 98.8125 C-58.35047549 107.5414092 -59.44646978 117.47546284 -60 127 C-60.33 127 -60.66 127 -61 127 C-63.53397623 112.13857186 -59.97037947 98.12117772 -51.625 85.6875 C-44.70236802 76.38799866 -36.48212265 70.0324008 -26 65 C-41.47730309 70.30179957 -53.40762109 80.47042208 -61 95 C-63.23929958 100.55074865 -64.90886046 106.11640446 -66 112 C-66.66 112 -67.32 112 -68 112 C-66.12644979 94.66266969 -59.35459005 80.44679147 -46 69 C-43.07559564 66.86819121 -40.08752337 64.88681984 -37 63 C-51.23330765 68.69962099 -62.17552641 80.25765365 -68.4375 94.125 C-68.96968134 95.4120327 -69.49521369 96.70197807 -70 98 C-70.66 98 -71.32 98 -72 98 C-68.08824429 81.87258609 -57.6700984 69.22319892 -44 60 C-36.72795771 55.89343494 -29.12785672 53.74472317 -21 52 C-37.81098851 52.74384905 -52.38943105 59.95649459 -64 72 C-66.46321836 74.91348408 -68.78341524 77.89531339 -71 81 C-71.33 80.34 -71.66 79.68 -72 79 C-61.68927806 62.68413231 -49.27501982 53.03420466 -31 47 C-29.34121731 46.62942089 -27.67654729 46.27942455 -26 46 C-42.3924179 46.86275884 -57.73991684 54.11203116 -69 66 C-69.66 65.67 -70.32 65.34 -71 65 C-59.6284972 49.82421263 -43.10518011 43.29428573 -25 40 C-38.53802458 40.63323018 -49.24535152 43.18808578 -61.06640625 49.671875 C-64 51 -64 51 -67 50 C-47.33584649 36.56798963 -27.3505784 32.69843589 -4 36 C-22.86683071 31.16157083 -39.32518987 31.60265603 -58 37 C-55.27614225 33.41707942 -51.37819957 32.59538016 -47.25 31.375 C-46.5590625 31.1584375 -45.868125 30.941875 -45.15625 30.71875 C-27.82448214 25.44103121 -10.99272686 28.02123927 6 33 C-11.01291965 24.89985798 -26.34475574 23.50147011 -45 24 C-40.52412142 19.52412142 -32.12385579 20.72677881 -26.125 20.6875 C-6.7913545 20.6875 12.05084623 26.27731594 27 39 C11.95965698 22.40375942 -8.72403503 16.60516993 -30 13 C-30 12.67 -30 12.34 -30 12 C-9.60541894 10.95709529 7.90287186 17.23867912 25 28 C14.12674483 17.48809168 -0.09919501 9.23284298 -15 6 C-15 5.34 -15 4.68 -15 4 C1.98073292 6.94195069 17.04600935 13.44644077 30 25 C22.97331847 16.39231513 15.42122136 10.40399845 5.85546875 4.796875 C3.52527026 3.33053942 1.80154212 2.04806893 0 0 Z M-18 62 C-18 62.33 -18 62.66 -18 63 C-16.35 63 -14.7 63 -13 63 C-13 62.67 -13 62.34 -13 62 C-14.65 62 -16.3 62 -18 62 Z M-10 67 C-10 67.33 -10 67.66 -10 68 C-6.37 68 -2.74 68 1 68 C1 67.67 1 67.34 1 67 C-2.63 67 -6.26 67 -10 67 Z M-10 73 C-6 74 -6 74 -6 74 Z M-31 92 C-39.27122919 102.45342583 -44.40083903 112.68592701 -44.375 126.1875 C-44.37411377 127.01958984 -44.37322754 127.85167969 -44.37231445 128.70898438 C-44.23222076 136.0535919 -43.24860973 143.52914107 -38.81640625 149.62890625 C-36.06266108 151.7075397 -32.96530455 152.77768827 -29.75 153.9375 C-28.68797363 154.3255481 -28.68797363 154.3255481 -27.60449219 154.72143555 C-9.60343168 161.97990421 -9.60343168 161.97990421 8.61328125 160.80859375 C11.26310142 159.03243124 13.6110332 157.11331679 16 155 C16.845625 154.2884375 17.69125 153.576875 18.5625 152.84375 C28.40261458 144.32365079 35.47989989 135.25150019 42 124 C42.45890625 123.32453125 42.9178125 122.6490625 43.390625 121.953125 C46.19339833 117.49237308 46.37206095 113.04760599 46.4375 107.875 C46.4478125 107.19332764 46.458125 106.51165527 46.46875 105.80932617 C46.36486259 99.88557968 44.68076887 95.92087871 40.8125 91.5 C29.26311047 81.23387597 17.82474602 76.44662232 2.26171875 76.75390625 C-9.67366357 77.65442013 -22.87445539 82.9938545 -31 92 Z M-219 164 C-219 164.33 -219 164.66 -219 165 C-217.35 165 -215.7 165 -214 165 C-214 164.67 -214 164.34 -214 164 C-215.65 164 -217.3 164 -219 164 Z M-56 181 C-52 182 -52 182 -52 182 Z M-48 182 C-48 182.33 -48 182.66 -48 183 C-45.69 183 -43.38 183 -41 183 C-41 182.67 -41 182.34 -41 182 C-43.31 182 -45.62 182 -48 182 Z M-16.734375 180.33984375 C-18.67763672 180.4800293 -18.67763672 180.4800293 -20.66015625 180.62304688 C-22.02344811 180.72772646 -23.38672924 180.83254594 -24.75 180.9375 C-26.12886331 181.03899651 -27.50776934 181.13991441 -28.88671875 181.24023438 C-32.25827648 181.48779631 -35.62928357 181.7412744 -39 182 C-36.17604673 184.82395327 -34.32644049 184.30002177 -30.375 184.3125 C-22.03824426 184.29607492 -14.11518503 182.79152573 -6 181 C-9.6713126 179.78814898 -12.90650043 180.05443205 -16.734375 180.33984375 Z " fill="#FDDC86" transform="translate(222,0)"/>
<path d="M0 0 C0.63647461 0.22945312 1.27294922 0.45890625 1.92871094 0.6953125 C7.07026692 2.55815631 12.14400258 4.47395859 17 7 C17 7.66 17 8.32 17 9 C16.12859375 8.84402344 15.2571875 8.68804687 14.359375 8.52734375 C-3.88062128 5.54656514 -17.8910387 9.86725664 -34.4375 17.5 C-60.83364851 29.25079369 -81.73711105 28.47826141 -109.69677734 21.76953125 C-114.60621139 20.62581092 -119.54496997 19.67254865 -124.5 18.75 C-125.35247314 18.58862549 -126.20494629 18.42725098 -127.08325195 18.26098633 C-131.66979998 17.40149303 -136.2610643 16.63813468 -140.875 15.9375 C-145.29595147 15.22565188 -148.9197322 13.88901287 -153 12 C-156.31187143 10.92376409 -159.65005436 9.95038699 -163 9 C-163 8.67 -163 8.34 -163 8 C-147.95489356 7.06455297 -131.46484911 8.74344394 -116.90209961 12.5480957 C-98.42959484 16.9368271 -77.95794735 11.01489259 -61 4 C-60.25975586 3.69449219 -59.51951172 3.38898438 -58.75683594 3.07421875 C-57.62036621 2.60435547 -57.62036621 2.60435547 -56.4609375 2.125 C-55.70546631 1.81272461 -54.94999512 1.50044922 -54.17163086 1.17871094 C-52.72733759 0.57832939 -51.28526332 -0.02743089 -49.84594727 -0.63964844 C-33.07343002 -7.70219069 -16.76912052 -6.19893154 0 0 Z " fill="#FEF28F" transform="translate(303,177)"/>
<path d="M0 0 C14.00831173 10.63558551 22.56160541 25.59099675 25 43 C25.75843562 52.34084917 25.62491887 61.2182025 22 70 C20.86609799 66.59829396 21.28387729 64.46779968 22 61 C22.17223551 56.00010458 22.1230371 51.01445008 22.02832031 46.01318359 C22.00505288 44.35918978 22.02401965 42.7046544 22.0546875 41.05078125 C21.88284679 33.42841815 17.80433079 28.63986658 13 23 C12.21109375 22.02546875 12.21109375 22.02546875 11.40625 21.03125 C1.72881292 10.16882063 -13.21375633 4.99545977 -27.3125 3.8046875 C-41.85310549 3.15555333 -56.00477328 8.12934856 -67.25 17.25 C-80.49671453 29.54664279 -84.97987838 45.4468728 -86 63 C-86.33 63 -86.66 63 -87 63 C-89.53397623 48.13857186 -85.97037947 34.12117772 -77.625 21.6875 C-70.70236802 12.38799866 -62.48212265 6.0324008 -52 1 C-67.47730309 6.30179957 -79.40762109 16.47042208 -87 31 C-89.23929958 36.55074865 -90.90886046 42.11640446 -92 48 C-92.66 48 -93.32 48 -94 48 C-92.12644979 30.66266969 -85.35459005 16.44679147 -72 5 C-69.07559564 2.86819121 -66.08752337 0.88681984 -63 -1 C-77.23330765 4.69962099 -88.17552641 16.25765365 -94.4375 30.125 C-94.96968134 31.4120327 -95.49521369 32.70197807 -96 34 C-96.66 34 -97.32 34 -98 34 C-94.08824429 17.87258609 -83.6700984 5.22319892 -70 -4 C-47.14429844 -16.90674912 -21.34134672 -14.38943498 0 0 Z M-44 -2 C-44 -1.67 -44 -1.34 -44 -1 C-42.35 -1 -40.7 -1 -39 -1 C-39 -1.33 -39 -1.66 -39 -2 C-40.65 -2 -42.3 -2 -44 -2 Z " fill="#009693" transform="translate(248,64)"/>
<path d="M0 0 C0.33 0 0.66 0 1 0 C1.43716496 5.15230126 0.11480341 8.43842634 -2.5 12.75 C-2.86311279 13.36270752 -3.22622559 13.97541504 -3.6003418 14.60668945 C-15.43421584 34.14574741 -31.662946 46.50192533 -52 56 C-52.33 55.01 -52.66 54.02 -53 53 C-56.09251788 52.22055927 -59.1144698 51.61603345 -62.25 51.0625 C-77.62427856 48.06984489 -92.3387555 42.92768688 -107.15338135 37.92840576 C-119.75784083 33.69163506 -131.75078708 31.60907802 -145.0625 31.625 C-146.28171143 31.62443604 -147.50092285 31.62387207 -148.75708008 31.62329102 C-159.3082881 31.74443231 -169.71218245 32.70955962 -180.1875 33.9375 C-180.96578156 34.02872131 -181.74406311 34.11994263 -182.54592896 34.21392822 C-190.51750099 34.76680942 -190.51750099 34.76680942 -198 37 C-199.77935875 37.27940193 -201.56630814 37.51117512 -203.35546875 37.71875 C-204.44682129 37.84596436 -205.53817383 37.97317871 -206.66259766 38.10424805 C-208.40742432 38.30014526 -208.40742432 38.30014526 -210.1875 38.5 C-211.36103027 38.6338208 -212.53456055 38.7676416 -213.74365234 38.90551758 C-222.1548764 39.8442858 -230.54596837 40.59543413 -239 41 C-239 40.34 -239 39.68 -239 39 C-232.07 37.515 -232.07 37.515 -225 36 C-225 35.67 -225 35.34 -225 35 C-223.17529175 34.86283569 -223.17529175 34.86283569 -221.3137207 34.72290039 C-206.74953914 33.53300774 -192.53909548 31.13524802 -178.1875 28.4375 C-174.84486661 27.81684612 -171.50177405 27.19877594 -168.15827942 26.58277893 C-166.10192655 26.2031365 -164.04612816 25.82047299 -161.99101257 25.43418884 C-131.60440732 19.77633055 -106.08990532 24.73310231 -77.7109375 35.64453125 C-58.84714759 43.39242422 -58.84714759 43.39242422 -39 45 C-35.13003935 43.23566816 -32.17435449 40.80239963 -29 38 C-28.16597656 37.31164062 -27.33195313 36.62328125 -26.47265625 35.9140625 C-14.67828405 25.84613923 -6.75483223 13.81515939 0 0 Z " fill="#FEF28F" transform="translate(267,116)"/>
<path d="M0 0 C2.48433664 1.95758255 4.88811983 3.98392031 7.28515625 6.046875 C7.92195313 6.53929688 8.55875 7.03171875 9.21484375 7.5390625 C18.44720755 14.80185536 26.56391201 27.46726491 28.8515625 39.0234375 C29.36379579 41.4138595 30.13617433 43.66599597 30.91015625 45.984375 C32.40628675 50.8336422 32.5296782 54.99342136 32.28515625 60.046875 C31.95515625 60.046875 31.62515625 60.046875 31.28515625 60.046875 C31.07761719 59.04269531 30.87007813 58.03851563 30.65625 57.00390625 C26.95996433 40.18663336 19.65560297 26.3411326 4.97265625 16.671875 C-11.98888044 6.41606211 -30.57803857 1.44385472 -50.296875 5.96484375 C-67.09814817 10.55393569 -79.64600455 19.94383201 -89.71484375 34.046875 C-90.04484375 33.386875 -90.37484375 32.726875 -90.71484375 32.046875 C-80.40412181 15.73100731 -67.98986357 6.08107966 -49.71484375 0.046875 C-48.05606106 -0.32370411 -46.39139104 -0.67370045 -44.71484375 -0.953125 C-61.10726165 -0.09036616 -76.45476059 7.15890616 -87.71484375 19.046875 C-88.37484375 18.716875 -89.03484375 18.386875 -89.71484375 18.046875 C-78.34334095 2.87108763 -61.82002386 -3.65883927 -43.71484375 -6.953125 C-57.25286833 -6.31989482 -67.96019527 -3.76503922 -79.78125 2.71875 C-82.71484375 4.046875 -82.71484375 4.046875 -85.71484375 3.046875 C-60.02949246 -14.49804015 -26.41570592 -19.00410498 0 0 Z " fill="#A9017B" transform="translate(240.71484375,46.953125)"/>
<path d="M0 0 C0.75418213 -0.00776459 1.50836426 -0.01552917 2.28540039 -0.02352905 C12.69457464 -0.10848854 22.15862969 0.88740023 32.3125 3.375 C33.70601685 3.70890747 33.70601685 3.70890747 35.12768555 4.04956055 C42.60629192 5.96916931 49.87033235 8.56412781 57.16506958 11.07553101 C69.74598175 15.39312942 82.15001589 19.22987547 95.3125 21.375 C95.3125 21.705 95.3125 22.035 95.3125 22.375 C74.59977199 26.26456572 54.07097221 21.12731469 35.3125 12.375 C39.9325 14.685 44.5525 16.995 49.3125 19.375 C45.49055777 20.64898074 44.06411425 19.85993291 40.28125 18.57421875 C39.07726562 18.17396484 37.87328125 17.77371094 36.6328125 17.36132812 C35.35906691 16.92929268 34.08563049 16.4963447 32.8125 16.0625 C9.90734581 8.29539583 -11.7271146 7.3971767 -35.6875 9.6875 C-37.15806934 9.82259318 -38.62869235 9.95710325 -40.09936523 10.09106445 C-47.56032248 10.77559072 -55.01699661 11.50244207 -62.47265625 12.2421875 C-63.17498383 12.31150986 -63.8773114 12.38083221 -64.60092163 12.45225525 C-67.93458211 12.78153718 -71.26744264 13.11595726 -74.59960938 13.46020508 C-80.9858479 14.10184131 -87.26947463 14.72895978 -93.6875 14.375 C-94.3475 13.715 -95.0075 13.055 -95.6875 12.375 C-95.6875 11.385 -95.6875 10.395 -95.6875 9.375 C-84.91450433 6.94229284 -74.37509143 5.65717454 -63.375 4.875 C-60.17006208 4.63532045 -56.96576383 4.38803834 -53.76171875 4.13671875 C-52.97529999 4.07534225 -52.18888123 4.01396576 -51.37863159 3.95072937 C-45.79765333 3.50080871 -40.26395056 2.84985775 -34.71533203 2.09619141 C-23.12652274 0.53195445 -11.67736463 0.0543837 0 0 Z M-92.6875 10.375 C-92.6875 10.705 -92.6875 11.035 -92.6875 11.375 C-91.0375 11.375 -89.3875 11.375 -87.6875 11.375 C-87.6875 11.045 -87.6875 10.715 -87.6875 10.375 C-89.3375 10.375 -90.9875 10.375 -92.6875 10.375 Z " fill="#019099" transform="translate(95.6875,153.625)"/>
<path d="M0 0 C0 0.99 0 1.98 0 3 C-0.6077124 2.9685791 -1.2154248 2.9371582 -1.84155273 2.90478516 C-14.92236857 2.32078716 -25.75397034 2.78864248 -37.80322266 8.04541016 C-41.95625009 9.85007089 -46.17204869 11.50327923 -50.375 13.1875 C-51.65201782 13.70485718 -51.65201782 13.70485718 -52.95483398 14.23266602 C-73.54362056 22.51379447 -94.09315562 22.63590259 -115.72094727 18.56591797 C-124.51315048 16.95103802 -133.26128522 16.22685892 -142.18457031 15.77197266 C-148.57081373 15.39589612 -154.0552465 14.39876019 -160 12 C-159.67 10.68 -159.34 9.36 -159 8 C-148.59546532 7.57045499 -138.32277513 8.85926129 -128 10 C-128.99 9.34 -129.98 8.68 -131 8 C-129.60386935 8.14295891 -128.20810692 8.28951558 -126.8125 8.4375 C-126.03519531 8.51871094 -125.25789063 8.59992188 -124.45703125 8.68359375 C-122 9 -122 9 -119.6640625 9.5 C-117.04926282 9.99075419 -114.57384696 10.20235013 -111.91796875 10.31640625 C-110.52094727 10.37924805 -110.52094727 10.37924805 -109.09570312 10.44335938 C-108.13599609 10.48267578 -107.17628906 10.52199219 -106.1875 10.5625 C-105.20845703 10.60568359 -104.22941406 10.64886719 -103.22070312 10.69335938 C-100.81392973 10.7990226 -98.40706017 10.90112327 -96 11 C-96 11.33 -96 11.66 -96 12 C-99.96 12.495 -99.96 12.495 -104 13 C-87.94563924 13.62279848 -74.10773298 10.89350026 -59.26318359 4.91064453 C-54.89784345 3.15414844 -50.5121945 1.45098297 -46.125 -0.25 C-45.26946533 -0.59119873 -44.41393066 -0.93239746 -43.5324707 -1.28393555 C-28.88670703 -6.97880217 -14.05870552 -8.20091155 0 0 Z M-123 11 C-119 12 -119 12 -119 12 Z M-115 12 C-115 12.33 -115 12.66 -115 13 C-112.69 13 -110.38 13 -108 13 C-108 12.67 -108 12.34 -108 12 C-110.31 12 -112.62 12 -115 12 Z " fill="#048BA1" transform="translate(289,170)"/>
<path d="M0 0 C2.68218551 2.15015145 5.22023372 4.37938547 7.73046875 6.7265625 C8.37113281 7.27699219 9.01179688 7.82742187 9.671875 8.39453125 C23.67276935 21.07990532 31.97383486 42.63841479 33.078125 61.3203125 C33.37800446 70.81884346 32.21315051 79.53472885 29.73046875 88.7265625 C29.40046875 88.7265625 29.07046875 88.7265625 28.73046875 88.7265625 C28.71588623 87.99131348 28.70130371 87.25606445 28.6862793 86.49853516 C28.6110762 83.1157247 28.51465693 79.73382439 28.41796875 76.3515625 C28.39541016 75.19527344 28.37285156 74.03898437 28.34960938 72.84765625 C28.1525699 66.50656769 27.55029165 60.9114678 25.47851562 54.89892578 C24.69186505 52.61445554 24.1107313 50.32395906 23.54296875 47.9765625 C17.81399434 28.95996681 3.21172281 15.56995756 -13.76953125 6.3515625 C-35.31938803 -4.83240139 -57.35121303 -4.89722889 -80.26953125 1.7265625 C-77.5456735 -1.85635808 -73.64773082 -2.67805734 -69.51953125 -3.8984375 C-68.82859375 -4.115 -68.13765625 -4.3315625 -67.42578125 -4.5546875 C-50.09401339 -9.83240629 -33.26225811 -7.25219823 -16.26953125 -2.2734375 C-33.2824509 -10.37357952 -48.61428699 -11.77196739 -67.26953125 -11.2734375 C-53.08217494 -25.46079381 -13.5225117 -9.40275007 0 0 Z " fill="#E1021A" transform="translate(244.26953125,35.2734375)"/>
<path d="M0 0 C6.14446634 5.24188936 12.62197611 11.52554895 16 19 C15.505 20.485 15.505 20.485 15 22 C14.41605469 21.03900391 14.41605469 21.03900391 13.8203125 20.05859375 C6.88805964 9.34075581 -2.96219422 2.99541318 -15.25 -0.25 C-30.88303863 -3.27311374 -44.56222171 0.87562115 -57.84375 9.1484375 C-66.61549545 15.72724658 -72.49873779 27.54791704 -75 38 C-75.31793593 41.06757679 -75.37965795 44.10487095 -75.375 47.1875 C-75.37701416 48.01886475 -75.37902832 48.85022949 -75.38110352 49.70678711 C-75.27978932 55.8941469 -74.17136072 61.10040338 -71.77734375 66.84765625 C-71.52082031 67.55792969 -71.26429688 68.26820313 -71 69 C-71.495 69.99 -71.495 69.99 -72 71 C-78.04275754 63.08190391 -79.55127718 54.36268805 -79.4375 44.5625 C-79.42992676 43.64235107 -79.42235352 42.72220215 -79.41455078 41.77416992 C-79.24730058 34.87723534 -78.31238772 29.13556125 -75 23 C-74.52949219 22.12085938 -74.05898437 21.24171875 -73.57421875 20.3359375 C-66.85616744 8.56632823 -58.19755277 1.64701517 -46 -4 C-59.9855043 1.26787329 -71.47946217 9.1409201 -78.421875 22.796875 C-84.15811792 35.8215207 -84.13192916 47.09562693 -83 61 C-87.56131838 56.43868162 -87.18207008 48.71794041 -87.3125 42.625 C-87.0521443 28.08847328 -81.78731521 14.51409335 -71.6875 4 C-51.13103805 -15.12229018 -22.72706033 -16.09321569 0 0 Z M-42 -6 C-38 -5 -38 -5 -38 -5 Z " fill="#9FB00E" transform="translate(254,79)"/>
<path d="M0 0 C9.85328547 1.43883466 18.55016944 8.0216549 25.9765625 14.30078125 C28.09376555 16.14216896 28.09376555 16.14216896 31 18 C26.1163329 12.09563077 20.8280757 6.96906227 15 2 C15.99 1.67 16.98 1.34 18 1 C21.96119091 3.6239736 25.44418463 6.85543549 29 10 C29.63550781 10.55042969 30.27101562 11.10085938 30.92578125 11.66796875 C48.08458036 27.59821422 59.14072502 52.63877043 60.12280273 75.90991211 C60.459188 89.88165878 60.54549347 103.40894169 57 117 C56.67 117 56.34 117 56 117 C56.0721875 116.1028125 56.144375 115.205625 56.21875 114.28125 C58.41292733 84.78175481 54.07061039 61.68736283 34.65820312 38.38964844 C21.45376718 23.06472454 5.20055281 10.38266358 -15 6 C-15 5.34 -15 4.68 -15 4 C1.98073292 6.94195069 17.04600935 13.44644077 30 25 C22.97331847 16.39231513 15.42122136 10.40399845 5.85546875 4.796875 C3.52527026 3.33053942 1.80154212 2.04806893 0 0 Z " fill="#FEDE88" transform="translate(222,0)"/>
<path d="M0 0 C12.27501053 4.18011794 23.95572464 7.0754927 36.8046875 8.87402344 C28.64388026 14.3145616 18.84718489 13.92969437 9.5 12.10449219 C-1.98871609 9.55760771 -12.91575456 5.53872995 -23.94018555 1.47827148 C-33.24909032 -1.90707563 -42.4481748 -4.41538617 -52.1953125 -6.12597656 C-53.10265137 -6.29959717 -54.00999023 -6.47321777 -54.94482422 -6.65209961 C-61.548884 -7.61488165 -68.28077362 -7.36945706 -74.9453125 -7.37597656 C-75.75308136 -7.37731598 -76.56085022 -7.3786554 -77.39309692 -7.3800354 C-88.41573023 -7.37608976 -99.18042075 -6.88606727 -110.11767578 -5.41088867 C-120.16028833 -4.0564105 -130.22065984 -3.22863328 -140.3203125 -2.43847656 C-141.16246307 -2.37203949 -142.00461365 -2.30560242 -142.87228394 -2.2371521 C-147.64617596 -1.86075999 -152.42049813 -1.49047516 -157.1953125 -1.12597656 C-157.1953125 -1.78597656 -157.1953125 -2.44597656 -157.1953125 -3.12597656 C-135.47577592 -8.01807666 -112.95582411 -9.09236595 -90.8046875 -10.69628906 C-87.30485778 -10.94980977 -83.82631488 -11.27043795 -80.33984375 -11.66503906 C-51.44174793 -14.62437876 -27.03044443 -9.22185275 0 0 Z " fill="#D6004D" transform="translate(171.1953125,162.1259765625)"/>
<path d="M0 0 C23.38732178 -1.19594259 44.78858422 7.02623175 62.33056641 22.39306641 C65.04107778 25.00210206 67.25219533 27.88382747 69.4375 30.9375 C69.90486572 31.5871875 70.37223145 32.236875 70.85375977 32.90625 C78.87366198 44.29623939 84.08975643 55.35309511 87 69 C87.19335938 69.81855469 87.38671875 70.63710937 87.5859375 71.48046875 C90.21368562 87.47006818 87.94084549 106.46460059 81 121 C80.54496094 121.95390625 80.08992188 122.9078125 79.62109375 123.890625 C71.48931925 139.75534038 71.48931925 139.75534038 65 143 C66.47257926 139.8142716 68.2944232 137.13354409 70.375 134.3125 C75.34473764 127.27634338 78.17076257 120.38400487 80 112 C80.66 112 81.32 112 82 112 C82.144375 110.80375 82.28875 109.6075 82.4375 108.375 C82.72702009 105.97611926 83.07069882 103.62240405 83.515625 101.24609375 C87.04766211 77.57574829 79.4818115 55.63734094 65.58935547 36.63989258 C48.89971617 14.44274052 26.82767892 5.54589681 0 1 C0 0.67 0 0.34 0 0 Z " fill="#F19201" transform="translate(192,12)"/>
<path d="M0 0 C0.85529297 -0.00773438 1.71058594 -0.01546875 2.59179688 -0.0234375 C8.07753981 -0.00669992 12.79556267 0.71202989 18.0625 2.25 C18.0625 2.58 18.0625 2.91 18.0625 3.25 C17.2375 3.26417969 16.4125 3.27835938 15.5625 3.29296875 C-0.18710322 3.94334299 -13.86218683 9.83557467 -28.24536133 15.85913086 C-33.520537 18.03819729 -38.19686689 19.79871324 -43.9375 20.25 C-44.66815674 20.33491699 -45.39881348 20.41983398 -46.15161133 20.50732422 C-66.60833509 22.85231868 -86.94322057 21.11462322 -107.3125 18.875 C-108.33234985 18.76403992 -109.35219971 18.65307983 -110.4029541 18.53875732 C-113.3401225 18.21500059 -116.27571697 17.87999383 -119.2109375 17.5390625 C-120.08904083 17.43998596 -120.96714417 17.34090942 -121.87185669 17.23883057 C-126.74831895 16.65020712 -131.25458265 15.73876133 -135.9375 14.25 C-135.9375 13.92 -135.9375 13.59 -135.9375 13.25 C-120.89239356 12.31455297 -104.40234911 13.99344394 -89.83959961 17.7980957 C-71.36709484 22.1868271 -50.89544735 16.26489259 -33.9375 9.25 C-33.19725586 8.94449219 -32.45701172 8.63898438 -31.69433594 8.32421875 C-30.55786621 7.85435547 -30.55786621 7.85435547 -29.3984375 7.375 C-28.64296631 7.06272461 -27.88749512 6.75044922 -27.10913086 6.42871094 C-25.66483759 5.82832939 -24.22276332 5.22256911 -22.78344727 4.61035156 C-15.08064639 1.36686963 -8.35112492 -0.07517892 0 0 Z " fill="#D4014F" transform="translate(275.9375,171.75)"/>
<path d="M0 0 C9.3427474 8.7824627 19.04397926 22.33270702 20.60546875 35.44921875 C20.67658629 38.45139496 20.66433666 41.44695552 20.60546875 44.44921875 C20.27546875 44.44921875 19.94546875 44.44921875 19.60546875 44.44921875 C19.39792969 43.44503906 19.19039063 42.44085938 18.9765625 41.40625 C15.28027683 24.58897711 7.97591547 10.74347635 -6.70703125 1.07421875 C-23.66856794 -9.18159414 -42.25772607 -14.15380153 -61.9765625 -9.6328125 C-78.77783567 -5.04372056 -91.32569205 4.34617576 -101.39453125 18.44921875 C-101.72453125 17.78921875 -102.05453125 17.12921875 -102.39453125 16.44921875 C-91.59293154 -0.64342255 -77.73331804 -11.43272064 -58.046875 -16.39453125 C-37.26560966 -20.23262643 -15.92295247 -13.58728666 0 0 Z " fill="#83418F" transform="translate(252.39453125,62.55078125)"/>
<path d="M0 0 C14.00831173 10.63558551 22.56160541 25.59099675 25 43 C25.75843562 52.34084917 25.62491887 61.2182025 22 70 C20.86609799 66.59829396 21.28387729 64.46779968 22 61 C22.09440384 58.25951195 22.14285435 55.55178095 22.125 52.8125 C22.12089111 52.0587207 22.11678223 51.30494141 22.11254883 50.52832031 C22.23319021 39.2101699 22.23319021 39.2101699 18 29 C17.8125 26.1875 17.8125 26.1875 18 24 C16.515 23.505 16.515 23.505 15 23 C14.88398438 21.92685547 14.88398438 21.92685547 14.765625 20.83203125 C12.61293311 12.86926787 4.23554774 6.81985662 -2.4375 2.5625 C-18.09091885 -6.424404 -36.31625416 -8.73304093 -53.875 -4.375 C-70.36380736 0.69982995 -83.28984084 9.86033616 -92 25 C-93.47179073 27.95236828 -94.80445999 30.92575425 -96 34 C-96.66 34 -97.32 34 -98 34 C-94.08824429 17.87258609 -83.6700984 5.22319892 -70 -4 C-47.14429844 -16.90674912 -21.34134672 -14.38943498 0 0 Z " fill="#0059A3" transform="translate(248,64)"/>
<path d="M0 0 C13.67879406 11.62697495 23.56670179 28.37231963 27 46 C27.32129108 50.24157119 27.28900745 54.43720071 27.1875 58.6875 C27.16719727 60.33008789 27.16719727 60.33008789 27.14648438 62.00585938 C27.11156837 64.67111414 27.06253717 67.33527504 27 70 C26.67 70 26.34 70 26 70 C25.94392578 68.33324219 25.94392578 68.33324219 25.88671875 66.6328125 C25.542813 58.28229237 24.83268319 50.91769496 22 43 C21.80792969 42.23042969 21.61585938 41.46085937 21.41796875 40.66796875 C16.93943995 22.7827473 4.4120009 9.41440014 -10.84765625 -0.15917969 C-32.19175528 -12.86983574 -54.1955589 -15.22968391 -78.0625 -9.375 C-79.71142294 -8.92790948 -81.35871413 -8.47436008 -83 -8 C-80.27614225 -11.58292058 -76.37819957 -12.40461984 -72.25 -13.625 C-71.5590625 -13.8415625 -70.868125 -14.058125 -70.15625 -14.28125 C-45.83775151 -21.68650706 -19.65899584 -15.56337171 0 0 Z " fill="#D6004F" transform="translate(247,45)"/>
<path d="M0 0 C0.8765625 0.25652344 1.753125 0.51304688 2.65625 0.77734375 C15.56054503 5.00023805 27.18085104 13.06648932 34 25 C34 25.66 34 26.32 34 27 C33.34 27 32.68 27 32 27 C30.58984375 25.49609375 30.58984375 25.49609375 28.9375 23.4375 C19.247398 12.12905107 5.74528623 5.08141823 -9.17529297 3.81542969 C-19.74871207 3.20521368 -29.10741577 3.88034849 -39 8 C-39.87914062 8.350625 -40.75828125 8.70125 -41.6640625 9.0625 C-55.08872998 15.04749107 -65.65971751 27.4438983 -71 41 C-72.16934244 44.96825045 -73.14472934 48.95310958 -74 53 C-74.66 53 -75.32 53 -76 53 C-74.14882618 35.86973483 -67.45291137 21.14733754 -54 10 C-37.98115987 -1.6152546 -19.19343917 -5.75145866 0 0 Z " fill="#0086B6" transform="translate(230,59)"/>
<path d="M0 0 C2.76940346 2.00614919 4.58998027 4.12372287 6.59375 6.87890625 C2.8393406 5.45126977 -0.6629134 3.74304077 -4.21875 1.87890625 C-8.94459984 -0.48689678 -13.17729636 -2.35469795 -18.40625 -3.12109375 C-19.29699219 -3.25386719 -20.18773437 -3.38664062 -21.10546875 -3.5234375 C-34.89836795 -5.12810159 -48.49162169 -2.36945664 -59.84375 5.87890625 C-71.31952433 15.20149406 -78.8532879 26.8827371 -81.203125 41.65625 C-81.64922905 48.73386231 -80.98068045 55.82272679 -80.40625 62.87890625 C-84.96756838 58.31758787 -84.58832008 50.59684666 -84.71875 44.50390625 C-84.4583943 29.96737953 -79.19356521 16.3929996 -69.09375 5.87890625 C-48.90332066 -12.90288848 -23.17320141 -13.4242605 0 0 Z " fill="#48A727" transform="translate(251.40625,77.12109375)"/>
<path d="M0 0 C1.08667969 -0.01160156 1.08667969 -0.01160156 2.1953125 -0.0234375 C6.63441067 -0.00735381 10.19318015 0.58782555 14.375 2.25 C14.375 2.58 14.375 2.91 14.375 3.25 C13.27542969 3.28738281 12.17585937 3.32476562 11.04296875 3.36328125 C9.54945024 3.42903364 8.05596206 3.49547757 6.5625 3.5625 C5.48452148 3.59633789 5.48452148 3.59633789 4.38476562 3.63085938 C-7.00065527 4.18257581 -17.17869725 8.49702361 -27.625 12.75 C-50.67647017 22.1348858 -71.96751496 24.71552731 -96.5078125 19.98046875 C-101.61929214 19.01046849 -106.70712995 18.71614098 -111.90234375 18.4609375 C-114.625 18.25 -114.625 18.25 -117.625 17.25 C-120.96530644 17.02274373 -124.29923929 16.85733715 -127.64453125 16.73242188 C-131.69739951 16.53242 -134.96156259 16.02425302 -138.625 14.25 C-138.625 13.92 -138.625 13.59 -138.625 13.25 C-129.89046764 13.60278752 -121.27022117 14.25760035 -112.59985352 15.39428711 C-92.03615214 18.06107645 -65.33463525 21.50136205 -45.5625 13.6875 C-44.52138062 13.30029785 -44.52138062 13.30029785 -43.45922852 12.90527344 C-36.78187553 10.39342577 -30.16348201 7.70441403 -23.57592773 4.96655273 C-15.62166213 1.70091231 -8.6217119 -0.09304006 0 0 Z " fill="#EE7512" transform="translate(288.625,174.75)"/>
<path d="M0 0 C24.08235791 4.17232341 43.86544315 16.19167876 58.12133789 36.03369141 C71.48702306 55.55330839 78.18458959 80.17258376 73.92480469 103.69165039 C73.31941707 106.80313401 72.67571212 109.90298612 72 113 C71.67 113 71.34 113 71 113 C71.0721875 112.1028125 71.144375 111.205625 71.21875 110.28125 C73.41292733 80.78175481 69.07061039 57.68736283 49.65820312 34.38964844 C36.45376718 19.06472454 20.20055281 6.38266358 0 2 C0 1.34 0 0.68 0 0 Z " fill="#F8B94A" transform="translate(207,4)"/>
<path d="M0 0 C1.29539703 -0.00776459 2.59079407 -0.01552917 3.92544556 -0.02352905 C30.91665702 -0.15095986 30.91665702 -0.15095986 43.5625 3.375 C44.316521 3.56304199 45.07054199 3.75108398 45.84741211 3.94482422 C47.68193765 4.41580448 49.49835922 4.95575777 51.3125 5.5 C51.98095947 5.69956299 52.64941895 5.89912598 53.33813477 6.10473633 C61.60470402 8.61763474 69.78022382 11.43284648 77.94628906 14.25244141 C86.8185905 17.27360181 95.31112573 19.40150803 104.6875 20 C105.80382812 20.07476562 106.92015625 20.14953125 108.0703125 20.2265625 C108.89273438 20.27554688 109.71515625 20.32453125 110.5625 20.375 C104.64932593 24.31711605 96.96542883 22.91946213 90.2421875 21.60546875 C78.76027036 19.05258855 67.83727395 15.03794449 56.81762695 10.97924805 C47.50872218 7.59390093 38.3096377 5.08559039 28.5625 3.375 C27.65516113 3.20137939 26.74782227 3.02775879 25.81298828 2.84887695 C19.2089285 1.88609492 12.47703888 2.1315195 5.8125 2.125 C5.00473114 2.12366058 4.19696228 2.12232117 3.36471558 2.12094116 C-7.65791773 2.12488681 -18.42260825 2.61490929 -29.35986328 4.09008789 C-39.40247583 5.44456606 -49.46284734 6.27234328 -59.5625 7.0625 C-60.40465057 7.12893707 -61.24680115 7.19537415 -62.11447144 7.26382446 C-66.88836346 7.64021658 -71.66268563 8.01050141 -76.4375 8.375 C-76.4375 7.715 -76.4375 7.055 -76.4375 6.375 C-51.16641811 0.6829512 -25.79049572 0.07161999 0 0 Z " fill="#C2066F" transform="translate(90.4375,152.625)"/>
<path d="M0 0 C2.48472097 1.9578854 4.89266309 3.97780379 7.28515625 6.046875 C7.95675781 6.59730469 8.62835938 7.14773437 9.3203125 7.71484375 C12.75971344 10.55545302 15.62497369 13.42902672 18.28515625 17.046875 C17.95515625 17.706875 17.62515625 18.366875 17.28515625 19.046875 C16.71410156 18.4178125 16.14304687 17.78875 15.5546875 17.140625 C1.14081509 1.92470881 -17.85709368 -5.73918187 -38.71484375 -6.953125 C-39.51792969 -7.00597656 -40.32101563 -7.05882812 -41.1484375 -7.11328125 C-55.56679272 -7.60603336 -70.64075758 -4.00251578 -82.71484375 4.046875 C-83.70484375 3.716875 -84.69484375 3.386875 -85.71484375 3.046875 C-60.02949246 -14.49804015 -26.41570592 -19.00410498 0 0 Z " fill="#C6006E" transform="translate(240.71484375,46.953125)"/>
<path d="M0 0 C0 0.66 0 1.32 0 2 C-1.01320313 1.69255859 -1.01320313 1.69255859 -2.046875 1.37890625 C-2.93890625 1.10949219 -3.8309375 0.84007812 -4.75 0.5625 C-5.63171875 0.29566406 -6.5134375 0.02882812 -7.421875 -0.24609375 C-24.10314942 -5.12410279 -38.46460557 -0.67864717 -53.95361328 5.65722656 C-82.94840251 17.4681687 -106.27943809 16.90146581 -136.81001282 11.95939636 C-144.18257462 10.78072548 -151.58649928 9.8778002 -159 9 C-159 8.67 -159 8.34 -159 8 C-148.59546532 7.57045499 -138.32277513 8.85926129 -128 10 C-128.99 9.34 -129.98 8.68 -131 8 C-129.60386935 8.14295891 -128.20810692 8.28951558 -126.8125 8.4375 C-126.03519531 8.51871094 -125.25789063 8.59992188 -124.45703125 8.68359375 C-122 9 -122 9 -119.6640625 9.5 C-117.04926282 9.99075419 -114.57384696 10.20235013 -111.91796875 10.31640625 C-110.52094727 10.37924805 -110.52094727 10.37924805 -109.09570312 10.44335938 C-108.13599609 10.48267578 -107.17628906 10.52199219 -106.1875 10.5625 C-105.20845703 10.60568359 -104.22941406 10.64886719 -103.22070312 10.69335938 C-100.81392973 10.7990226 -98.40706017 10.90112327 -96 11 C-96 11.33 -96 11.66 -96 12 C-99.96 12.495 -99.96 12.495 -104 13 C-87.94563924 13.62279848 -74.10773298 10.89350026 -59.26318359 4.91064453 C-54.89784345 3.15414844 -50.5121945 1.45098297 -46.125 -0.25 C-45.26946533 -0.59119873 -44.41393066 -0.93239746 -43.5324707 -1.28393555 C-28.88670703 -6.97880217 -14.05870552 -8.20091155 0 0 Z M-123 11 C-119 12 -119 12 -119 12 Z M-115 12 C-115 12.33 -115 12.66 -115 13 C-112.69 13 -110.38 13 -108 13 C-108 12.67 -108 12.34 -108 12 C-110.31 12 -112.62 12 -115 12 Z " fill="#42A631" transform="translate(289,170)"/>
<path d="M0 0 C0.66 0.33 1.32 0.66 2 1 C4.54061566 8.90413761 4.28094956 16.84530434 4.04882812 25.05566406 C4.00830108 26.66945102 4.00692272 28.2841652 4.015625 29.8984375 C3.69600316 39.77475229 -2.70446342 47.83008334 -9 55 C-9.46148437 55.79921875 -9.92296875 56.5984375 -10.3984375 57.421875 C-18.53828403 70.52504259 -35.77245181 77.68997754 -50 82 C-52.33547767 82.43600821 -54.63642171 82.73432647 -57 83 C-56.67 82.01 -56.34 81.02 -56 80 C-55.44054687 79.93683594 -54.88109375 79.87367188 -54.3046875 79.80859375 C-37.89702785 77.30260072 -23.07281947 66.47819017 -13.0859375 53.515625 C-11.32759349 51.04646108 -9.64712511 48.54440811 -8 46 C-7.278125 44.906875 -6.55625 43.81375 -5.8125 42.6875 C-5.17585265 41.47483838 -4.57473386 40.24320113 -4 39 C-3.62746094 38.2059375 -3.25492187 37.411875 -2.87109375 36.59375 C1.62491592 24.93858906 0.35743237 12.27780206 0 0 Z " fill="#BA0E75" transform="translate(267,98)"/>
<path d="M0 0 C0.75091919 -0.00749268 1.50183838 -0.01498535 2.2755127 -0.02270508 C12.68864423 -0.10808194 22.15465124 0.88642555 32.3125 3.375 C33.24151123 3.59760498 34.17052246 3.82020996 35.12768555 4.04956055 C42.60629192 5.96916931 49.87033235 8.56412781 57.16506958 11.07553101 C69.74598175 15.39312942 82.15001589 19.22987547 95.3125 21.375 C95.3125 21.705 95.3125 22.035 95.3125 22.375 C90.45520355 23.34799156 85.8624375 23.49538805 80.9375 23.4375 C80.20144531 23.43298828 79.46539062 23.42847656 78.70703125 23.42382812 C76.90881842 23.41215142 75.11064803 23.39422011 73.3125 23.375 C73.3125 23.045 73.3125 22.715 73.3125 22.375 C75.2925 22.045 77.2725 21.715 79.3125 21.375 C78.28898437 21.13007813 77.26546875 20.88515625 76.2109375 20.6328125 C64.33702271 17.69053127 52.79222446 13.96779317 41.24951172 9.94189453 C26.41700074 4.84796058 12.13839513 2.172434 -3.5 2.25 C-4.46325195 2.25265869 -5.42650391 2.25531738 -6.41894531 2.25805664 C-17.8624693 1.78128635 -17.8624693 1.78128635 -28.6875 4.375 C-31.40510108 4.44681821 -34.09609388 4.46799506 -36.8125 4.4375 C-37.56660156 4.43298828 -38.32070313 4.42847656 -39.09765625 4.42382812 C-40.96097127 4.41203499 -42.82424555 4.39409942 -44.6875 4.375 C-44.6875 4.045 -44.6875 3.715 -44.6875 3.375 C-29.77514058 1.1128777 -15.0631546 0.05180928 0 0 Z " fill="#7C418F" transform="translate(95.6875,153.625)"/>
<path d="M0 0 C1.38985528 0.39076893 2.78055182 0.77855263 4.171875 1.1640625 C11.4749622 3.21026139 18.38136777 5.19780701 25 9 C21.17805777 10.27398074 19.75161425 9.48493291 15.96875 8.19921875 C14.16277344 7.59883789 14.16277344 7.59883789 12.3203125 6.98632812 C11.04656691 6.55429268 9.77313049 6.1213447 8.5 5.6875 C-14.40515419 -2.07960417 -36.0396146 -2.9778233 -60 -0.6875 C-61.47056934 -0.55240682 -62.94119235 -0.41789675 -64.41186523 -0.28393555 C-71.87282248 0.40059072 -79.32949661 1.12744207 -86.78515625 1.8671875 C-87.48748383 1.93650986 -88.1898114 2.00583221 -88.91342163 2.07725525 C-92.24708211 2.40653718 -95.57994264 2.74095726 -98.91210938 3.08520508 C-105.3145549 3.72846965 -111.56528429 4.14545644 -118 4 C-118.33 3.34 -118.66 2.68 -119 2 C-118.44054687 1.96036133 -117.88109375 1.92072266 -117.3046875 1.87988281 C-102.82027886 0.82615373 -88.44087567 -0.72368416 -74.04296875 -2.59082031 C-49.31483521 -5.79609037 -24.14397015 -7.39488091 0 0 Z " fill="#45A72F" transform="translate(120,164)"/>
<path d="M0 0 C2.75739753 0.00317167 5.51372891 -0.02046372 8.27099609 -0.0456543 C23.4974369 -0.10147075 38.16932217 1.29589382 52.57177734 6.56567383 C54.33473312 7.17914206 56.09775609 7.79241725 57.86083984 8.40551758 C58.74416992 8.71859863 59.6275 9.03167969 60.53759766 9.35424805 C65.16000793 10.98710162 69.8020695 12.56012245 74.44677734 14.12817383 C75.28313721 14.41789063 76.11949707 14.70760742 76.98120117 15.00610352 C84.6328211 17.59966587 92.31587358 19.32002739 100.38427734 19.94067383 C101.31498047 20.01543945 102.24568359 20.09020508 103.20458984 20.16723633 C103.88263672 20.2162207 104.56068359 20.26520508 105.25927734 20.31567383 C102.86368827 22.60583355 101.69001752 23.30592338 98.32568359 23.38208008 C80.96537132 20.88544654 64.46107783 15.20690584 47.93603516 9.47558594 C32.94989924 4.34429143 19.20877209 2.11998737 3.44677734 2.12817383 C2.16391846 2.1275293 0.88105957 2.12688477 -0.44067383 2.1262207 C-9.3318077 2.17527831 -18.0139492 2.71094224 -26.82275391 3.87817383 C-30.86103353 4.32910834 -34.68363383 4.38836523 -38.74072266 4.31567383 C-35.8900389 1.46499007 -32.80525091 1.60161646 -28.95947266 1.21020508 C-28.16287231 1.12632034 -27.36627197 1.04243561 -26.54553223 0.95600891 C-17.70459886 0.10342313 -8.87626282 -0.02125768 0 0 Z " fill="#F08508" transform="translate(107.74072265625,148.684326171875)"/>
<path d="M0 0 C0.495 0.99 0.495 0.99 1 2 C-3.67081992 11.65879429 -10.48421055 19.47282299 -18 27 C-18.58265625 27.59425781 -19.1653125 28.18851563 -19.765625 28.80078125 C-26.03072776 34.67035985 -37.53220044 42.43561958 -46.23828125 43.1953125 C-47.26501953 43.16050781 -47.26501953 43.16050781 -48.3125 43.125 C-49.529375 43.08375 -50.74625 43.0425 -52 43 C-52.33 43.99 -52.66 44.98 -53 46 C-60.83022373 47.36221676 -68.59961201 46.88812661 -76.5 46.5625 C-77.90883191 46.50917445 -79.31768615 46.45643511 -80.7265625 46.40429688 C-84.151305 46.2752826 -87.57570624 46.14034513 -91 46 C-91 45.67 -91 45.34 -91 45 C-90.41734375 44.98541748 -89.8346875 44.97083496 -89.234375 44.95581055 C-61.21667576 44.17662335 -37.51528783 39.05350724 -16 20 C-15.36320312 19.44699219 -14.72640625 18.89398438 -14.0703125 18.32421875 C-8.37314497 13.03399176 -4.27203021 6.44195032 0 0 Z " fill="#E9A123" transform="translate(263,135)"/>
<path d="M0 0 C10.3813846 1.67056764 20.05769926 14.40830913 25.9375 22.4375 C37.79269456 39.22057782 45.26020179 58.67881215 45.0625 79.4375 C45.05347656 80.67371094 45.04445313 81.90992187 45.03515625 83.18359375 C45.02355469 84.11300781 45.01195312 85.04242188 45 86 C44.67 86 44.34 86 44 86 C42.97541723 80.30013665 41.99472277 74.73218407 41.8125 68.9375 C39.60869437 43.79243901 20.59425798 19.72261584 3 3 C1.99671236 2.00329849 0.99518854 1.00478842 0 0 Z " fill="#FEF28F" transform="translate(237,1)"/>
<path d="M0 0 C1.20914063 -0.020625 2.41828125 -0.04125 3.6640625 -0.0625 C20.17057241 -0.13214772 34.74463573 3.73756408 50.1875 9.1875 C65.29766637 14.4719386 80.22071377 18.96074668 96.125 21.25 C92.39204787 23.73863475 90.08822803 23.22688972 85.875 22.625 C85.15755615 22.52582275 84.4401123 22.42664551 83.70092773 22.32446289 C70.69418785 20.40098129 58.76525657 16.0725811 46.48486328 11.54663086 C32.66525867 6.52312817 18.87705517 3.29586786 4.125 2.93359375 C3.04327515 2.9024221 3.04327515 2.9024221 1.93969727 2.87062073 C-0.33178507 2.80598066 -2.60336862 2.74664449 -4.875 2.6875 C-6.42839529 2.6442331 -7.98178087 2.60061642 -9.53515625 2.55664062 C-13.31500424 2.45038904 -17.09495252 2.3488892 -20.875 2.25 C-20.875 1.92 -20.875 1.59 -20.875 1.25 C-13.94642715 -0.02469293 -7.02796578 0.02904118 0 0 Z " fill="#F8B848" transform="translate(119.875,146.75)"/>
<path d="M0 0 C0.82230103 0.00220551 1.64460205 0.00441101 2.49182129 0.00668335 C23.1130129 0.11811812 40.42175991 4.52652788 59.81738281 11.3137207 C69.09718337 14.54874793 78.37146065 17.11379881 87.9375 19.375 C90.60598613 20.03461274 93.27176177 20.70432768 95.9375 21.375 C95.2775 22.035 94.6175 22.695 93.9375 23.375 C91.33528528 23.15125244 88.9290625 22.80649795 86.375 22.3125 C85.60760498 22.16820557 84.84020996 22.02391113 84.04956055 21.87524414 C72.67774009 19.63951933 61.8092044 16.02780774 50.86724854 12.27272034 C26.56123124 3.94814659 2.80741558 -0.96558986 -23.0625 3.375 C-25.7418948 3.48251986 -28.37882049 3.4220821 -31.0625 3.375 C-31.0625 3.045 -31.0625 2.715 -31.0625 2.375 C-20.66327765 0.37722743 -10.55818508 -0.03241899 0 0 Z " fill="#FEDC84" transform="translate(122.0625,145.625)"/>
<path d="M0 0 C27.37569773 -0.54477611 49.32231793 3.29900567 75.1953125 12.12597656 C87.47032303 16.3060945 99.15103714 19.20146926 112 21 C112 21.33 112 21.66 112 22 C104.43924708 22.43135833 97.52335859 22.17702855 90.1640625 20.36328125 C89.43684494 20.18785294 88.70962738 20.01242462 87.96037292 19.8316803 C79.26480284 17.66484441 70.79796259 14.80159536 62.3125 11.9375 C47.59121834 6.96904858 32.95650581 2.30336464 17.28515625 1.68359375 C16.27001953 1.64169922 15.25488281 1.59980469 14.20898438 1.55664062 C13.17064453 1.51732422 12.13230469 1.47800781 11.0625 1.4375 C9.99708984 1.39431641 8.93167969 1.35113281 7.83398438 1.30664062 C5.22276557 1.20125511 2.61146254 1.09912912 0 1 C0 0.67 0 0.34 0 0 Z " fill="#E1041C" transform="translate(96,150)"/>
<path d="M0 0 C25.65973672 -0.71104855 47.46880956 3.9791043 71.45922852 12.80639648 C80.41520275 16.00215926 89.72497442 17.96498482 99 20 C99 20.33 99 20.66 99 21 C96.10359882 21.08120751 93.20949088 21.14059421 90.3125 21.1875 C89.49587891 21.21263672 88.67925781 21.23777344 87.83789062 21.26367188 C87.04189453 21.27333984 86.24589844 21.28300781 85.42578125 21.29296875 C84.69786377 21.3086792 83.96994629 21.32438965 83.2199707 21.34057617 C80.31032682 20.89419399 78.50036287 19.54349897 76 18 C73.67648459 17.08242464 71.32964176 16.22286405 68.96875 15.40625 C67.96019958 15.05705505 67.96019958 15.05705505 66.93127441 14.70080566 C65.51017414 14.21061523 64.08807135 13.72332266 62.66503906 13.23876953 C60.53126493 12.51066844 58.40227979 11.76972193 56.2734375 11.02734375 C37.80122145 4.65235559 19.46621123 1.89553998 0 1 C0 0.67 0 0.34 0 0 Z " fill="#075DA4" transform="translate(81,155)"/>
<path d="M0 0 C1.02480469 0.00322266 2.04960937 0.00644531 3.10546875 0.00976562 C4.16894531 0.01814453 5.23242188 0.02652344 6.328125 0.03515625 C7.40707031 0.03966797 8.48601562 0.04417969 9.59765625 0.04882812 C12.25786883 0.06059898 14.91796865 0.07704226 17.578125 0.09765625 C17.578125 0.42765625 17.578125 0.75765625 17.578125 1.09765625 C16.47855469 1.13503906 15.37898438 1.17242187 14.24609375 1.2109375 C12.75257524 1.27668989 11.25908706 1.34313382 9.765625 1.41015625 C8.68764648 1.44399414 8.68764648 1.44399414 7.58789062 1.47851562 C-3.79753027 2.03023206 -13.97557225 6.34467986 -24.421875 10.59765625 C-38.96718397 16.51945051 -51.84211621 20.29542056 -67.609375 20.28515625 C-68.62717041 20.28580078 -69.64496582 20.28644531 -70.69360352 20.28710938 C-77.79416411 20.23719729 -84.4960081 19.76582204 -91.421875 18.09765625 C-91.421875 17.76765625 -91.421875 17.43765625 -91.421875 17.09765625 C-89.8584436 17.12907715 -89.8584436 17.12907715 -88.26342773 17.16113281 C-84.32167821 17.23463729 -80.37998636 17.27984837 -76.43774414 17.31738281 C-74.74558256 17.33725101 -73.05348729 17.36435532 -71.36157227 17.39941406 C-53.92293977 17.75118713 -39.73466564 13.55882458 -23.734375 6.91015625 C-21.7374882 6.08873325 -19.739568 5.26994073 -17.74052429 4.45378113 C-15.95562105 3.72384 -14.17363365 2.98678051 -12.3918457 2.24926758 C-8.04329763 0.56311047 -4.66907495 -0.02593931 0 0 Z " fill="#F8B747" transform="translate(285.421875,176.90234375)"/>
<path d="M0 0 C-1.43666016 0.00386719 -1.43666016 0.00386719 -2.90234375 0.0078125 C-13.90534522 0.24415048 -22.86614912 2.88218575 -33 7 C-33.83176758 7.33547852 -34.66353516 7.67095703 -35.52050781 8.01660156 C-38.9989953 9.41969988 -42.47720893 10.82345252 -45.953125 12.23291016 C-58.40937718 17.23835162 -69.86848433 19.17855514 -83.25 19.1875 C-84.2296875 19.19974609 -85.209375 19.21199219 -86.21875 19.22460938 C-87.63414062 19.22750977 -87.63414062 19.22750977 -89.078125 19.23046875 C-89.92793945 19.23457764 -90.77775391 19.23868652 -91.65332031 19.24291992 C-94.1854681 18.980801 -95.8147425 18.27263193 -98 17 C-97.1843457 16.98541748 -96.36869141 16.97083496 -95.52832031 16.95581055 C-92.44153577 16.89399622 -89.35534781 16.81971522 -86.26904297 16.73754883 C-84.30066475 16.6887559 -82.33195966 16.65376562 -80.36328125 16.61914062 C-68.34242435 16.28353295 -58.10099128 13.75726362 -47.0625 9.125 C-45.3296344 8.41615964 -43.59656123 7.7078265 -41.86328125 7 C-41.03393066 6.65839844 -40.20458008 6.31679687 -39.35009766 5.96484375 C-9.46001029 -6.30667352 -9.46001029 -6.30667352 0 0 Z " fill="#7C3E8E" transform="translate(282,172)"/>
<path d="M0 0 C1.89492188 0.01353516 1.89492188 0.01353516 3.828125 0.02734375 C4.79234375 0.03894531 5.7565625 0.05054688 6.75 0.0625 C6.75 0.3925 6.75 0.7225 6.75 1.0625 C5.38681641 1.19205078 5.38681641 1.19205078 3.99609375 1.32421875 C-11.06077126 3.00749904 -24.31143346 8.33829195 -38.1328125 14.29296875 C-38.86016602 14.60411621 -39.58751953 14.91526367 -40.33691406 15.23583984 C-41.79230841 15.8647277 -43.23833154 16.51535288 -44.6796875 17.17578125 C-54.03957303 20.40479951 -63.36779837 20.37378322 -73.15332031 20.32324219 C-75.61288277 20.31255266 -78.07171014 20.32316832 -80.53125 20.3359375 C-89.29512269 20.34256725 -97.64368689 19.93519961 -106.25 18.0625 C-106.25 17.7325 -106.25 17.4025 -106.25 17.0625 C-105.033125 17.041875 -103.81625 17.02125 -102.5625 17 C-101.87800781 16.98839844 -101.19351563 16.97679687 -100.48828125 16.96484375 C-98.25 17.0625 -98.25 17.0625 -96.02001953 17.5559082 C-91.00137312 18.47373751 -85.91359313 18.28786656 -80.82446289 18.30273438 C-78.84964848 18.31231969 -76.87497632 18.34345395 -74.90039062 18.375 C-61.07201952 18.43045211 -49.34834401 15.51575388 -36.6875 10.125 C-28.29967486 6.6581657 -20.03889321 3.37996935 -11.25 1.0625 C-10.63253906 0.86914062 -10.01507813 0.67578125 -9.37890625 0.4765625 C-6.24316763 -0.13332428 -3.18943175 -0.02953178 0 0 Z " fill="#035BA4" transform="translate(270.25,168.9375)"/>
<path d="M0 0 C0.91330078 0.00902344 1.82660156 0.01804688 2.76757812 0.02734375 C4.99117319 0.05062747 7.21418677 0.0833229 9.4375 0.125 C9.4375 0.455 9.4375 0.785 9.4375 1.125 C8.43332031 1.15078125 7.42914063 1.1765625 6.39453125 1.203125 C-8.60006778 1.75130273 -21.08982093 6.63118489 -34.875 12.2265625 C-38.46704006 13.68422264 -42.06094878 15.12974059 -45.6875 16.5 C-46.41195312 16.77585938 -47.13640625 17.05171875 -47.8828125 17.3359375 C-56.70792755 19.93458654 -65.01121984 20.38298957 -74.1875 20.25 C-75.97994141 20.23646484 -75.97994141 20.23646484 -77.80859375 20.22265625 C-80.72677834 20.19931077 -83.64452776 20.16656656 -86.5625 20.125 C-86.5625 19.795 -86.5625 19.465 -86.5625 19.125 C-85.36496094 19.08761719 -84.16742188 19.05023438 -82.93359375 19.01171875 C-64.56579453 18.32313968 -48.95871999 14.34346645 -32.08984375 7.25 C-31.34395996 6.93772461 -30.59807617 6.62544922 -29.82958984 6.30371094 C-28.41094149 5.70608764 -26.99557625 5.10057787 -25.58447266 4.48535156 C-17.0675661 0.86425342 -9.2202798 -0.17588208 0 0 Z " fill="#FEDD85" transform="translate(296.5625,177.875)"/>
<path d="M0 0 C11.41321558 0.42379418 22.44288633 1.72854769 33.69873047 3.62695312 C39.44502014 4.55845436 45.22577713 5.26635434 51 6 C51 6.33 51 6.66 51 7 C10.32735645 7.3187127 10.32735645 7.3187127 0 3 C0 2.01 0 1.02 0 0 Z " fill="#039394" transform="translate(129,179)"/>
<path d="M0 0 C10.40453468 -0.42954501 20.67722487 0.85926129 31 2 C30.01 1.34 29.02 0.68 28 0 C29.39613065 0.14295891 30.79189308 0.28951558 32.1875 0.4375 C32.96480469 0.51871094 33.74210937 0.59992188 34.54296875 0.68359375 C37 1 37 1 39.3359375 1.5 C41.95073718 1.99075419 44.42615304 2.20235013 47.08203125 2.31640625 C48.01337891 2.35830078 48.94472656 2.40019531 49.90429688 2.44335938 C50.86400391 2.48267578 51.82371094 2.52199219 52.8125 2.5625 C53.79154297 2.60568359 54.77058594 2.64886719 55.77929688 2.69335938 C58.18607027 2.7990226 60.59293983 2.90112327 63 3 C63 3.33 63 3.66 63 4 C60.36 4.33 57.72 4.66 55 5 C59.95 5.33 64.9 5.66 70 6 C70 6.33 70 6.66 70 7 C53.36621051 7.41372308 37.44716889 6.43601209 21 4 C18.94295279 3.709203 16.88566002 3.42013769 14.828125 3.1328125 C9.88277165 2.43927667 4.94073583 1.72567058 0 1 C0 0.67 0 0.34 0 0 Z M36 3 C40 4 40 4 40 4 Z M44 4 C44 4.33 44 4.66 44 5 C46.31 5 48.62 5 51 5 C51 4.67 51 4.34 51 4 C48.69 4 46.38 4 44 4 Z " fill="#48A72B" transform="translate(130,178)"/>
<path d="M0 0 C-3.81900204 2.54600136 -7.42258818 2.85779712 -11.875 3.4375 C-12.79941895 3.56165283 -13.72383789 3.68580566 -14.67626953 3.8137207 C-30.38331567 5.80361257 -46.21556395 6.82015071 -62 8 C-62 7.34 -62 6.68 -62 6 C-41.90631205 1.47410543 -20.59581652 -0.88831797 0 0 Z " fill="#D20B48" transform="translate(76,153)"/>
<path d="M0 0 C0.495 1.485 0.495 1.485 1 3 C1.66 3 2.32 3 3 3 C-1.55349032 13.55475705 -14.97825085 20.54190228 -25.14453125 24.80078125 C-31.37541672 27.26114923 -37.31513707 29.24860068 -44 30 C-43.505 28.515 -43.505 28.515 -43 27 C-42.44054687 26.93683594 -41.88109375 26.87367188 -41.3046875 26.80859375 C-25.53967349 24.40075399 -12.47792831 14.55838615 -2 3 C-1.34 2.01 -0.68 1.02 0 0 Z " fill="#E2151E" transform="translate(254,151)"/>
<path d="M0 0 C0.495 0.99 0.495 0.99 1 2 C-6.52998552 17.57126636 -17.82441614 28.14231919 -33 36 C-34.07636719 36.56074219 -35.15273437 37.12148437 -36.26171875 37.69921875 C-43.28069421 41.11968076 -43.28069421 41.11968076 -46.30078125 40.6171875 C-46.86152344 40.41351563 -47.42226562 40.20984375 -48 40 C-45.28033007 38.18688671 -42.54869871 36.79177511 -39.60571289 35.38696289 C-22.30775639 27.07391597 -10.42075738 15.93907808 0 0 Z " fill="#F6B03E" transform="translate(263,135)"/>
<path d="M0 0 C0.92232422 0.00902344 1.84464844 0.01804688 2.79492188 0.02734375 C5.05105809 0.0507234 7.30663684 0.08349084 9.5625 0.125 C9.5625 0.455 9.5625 0.785 9.5625 1.125 C8.74910156 1.13917969 7.93570313 1.15335938 7.09765625 1.16796875 C-8.44401708 1.81481005 -21.97354431 7.06962575 -36.09765625 13.2578125 C-48.30095257 18.54735614 -48.30095257 18.54735614 -53.9375 18.3125 C-55.22140625 18.27189453 -55.22140625 18.27189453 -56.53125 18.23046875 C-57.47484375 18.17826172 -57.47484375 18.17826172 -58.4375 18.125 C-54.62445217 15.99447197 -50.51664864 14.81401882 -46.375 13.5 C-38.69525666 11.01405326 -31.28558316 8.08645722 -23.89624023 4.84130859 C-15.74403458 1.28626456 -8.88589361 -0.16633062 0 0 Z " fill="#C2046F" transform="translate(276.4375,171.875)"/>
<path d="M0 0 C0 0.33 0 0.66 0 1 C-0.93972656 1.09087891 -0.93972656 1.09087891 -1.8984375 1.18359375 C-2.71570313 1.26738281 -3.53296875 1.35117188 -4.375 1.4375 C-5.18710938 1.51871094 -5.99921875 1.59992188 -6.8359375 1.68359375 C-9.04272805 1.89090114 -9.04272805 1.89090114 -11 3 C-12.77935875 3.27940193 -14.56630814 3.51117512 -16.35546875 3.71875 C-17.44682129 3.84596436 -18.53817383 3.97317871 -19.66259766 4.10424805 C-20.82581543 4.23484619 -21.9890332 4.36544434 -23.1875 4.5 C-24.36103027 4.6338208 -25.53456055 4.7676416 -26.74365234 4.90551758 C-35.1548764 5.8442858 -43.54596837 6.59543413 -52 7 C-52 6.34 -52 5.68 -52 5 C-45.07 3.515 -45.07 3.515 -38 2 C-38 1.67 -38 1.34 -38 1 C-25.14975997 -0.54596467 -12.89616803 -1.25074238 0 0 Z " fill="#FCDB78" transform="translate(80,150)"/>
<path d="M0 0 C0.87462891 0.00902344 1.74925781 0.01804688 2.65039062 0.02734375 C4.78788064 0.0507043 6.92522786 0.08656753 9.0625 0.125 C9.0625 0.455 9.0625 0.785 9.0625 1.125 C8.2375 1.13917969 7.4125 1.15335938 6.5625 1.16796875 C-9.18710322 1.81834299 -22.86218683 7.71057467 -37.24536133 13.73413086 C-42.52173272 15.91369121 -47.22498239 17.70365118 -52.9375 18.125 C-53.2675 17.465 -53.5975 16.805 -53.9375 16.125 C-53.34960693 15.91407715 -52.76171387 15.7031543 -52.15600586 15.48583984 C-41.40304528 11.62085567 -30.68467759 7.73043404 -20.12890625 3.3515625 C-13.16728647 0.67598281 -7.37846018 -0.1458859 0 0 Z " fill="#E1041E" transform="translate(284.9375,173.875)"/>
<path d="M0 0 C5.59001075 -0.37266738 10.02771012 0.72526472 15.3515625 2.44140625 C17.93512122 3.19833947 17.93512122 3.19833947 20.18603516 2.39501953 C24.03591207 1.85458045 27.07965065 2.99662427 30.671875 4.23828125 C31.39489807 4.47910934 32.11792114 4.71993744 32.862854 4.96806335 C34.38429951 5.47777166 35.90379122 5.99334492 37.42138672 6.5144043 C39.7514225 7.31298754 42.08775686 8.09039257 44.42578125 8.86523438 C45.90406256 9.36334829 47.38194229 9.86265595 48.859375 10.36328125 C49.56036316 10.59670731 50.26135132 10.83013336 50.98358154 11.07063293 C55.88436026 12.76872052 55.88436026 12.76872052 57 15 C47.89677907 13.57906577 39.74155209 11.915945 31.35546875 7.890625 C28.90518297 6.68087647 28.90518297 6.68087647 26 8 C23.57421875 7.328125 23.57421875 7.328125 20.6875 6.25 C13.88537454 3.85218833 7.07495552 2.38150019 0 1 C0 0.67 0 0.34 0 0 Z " fill="#0988B4" transform="translate(104,160)"/>
<path d="M0 0 C0.75091919 -0.00749268 1.50183838 -0.01498535 2.2755127 -0.02270508 C12.67214919 -0.1079467 22.18704114 0.93867419 32.3125 3.375 C32.3125 4.035 32.3125 4.695 32.3125 5.375 C26.48543903 4.92310548 20.76302974 4.29270168 15 3.3125 C3.13861864 1.56010187 -17.65093585 -1.14328207 -28.6875 4.375 C-31.40510108 4.44681821 -34.09609388 4.46799506 -36.8125 4.4375 C-37.56660156 4.43298828 -38.32070313 4.42847656 -39.09765625 4.42382812 C-40.96097127 4.41203499 -42.82424555 4.39409942 -44.6875 4.375 C-44.6875 4.045 -44.6875 3.715 -44.6875 3.375 C-29.77514058 1.1128777 -15.0631546 0.05180928 0 0 Z " fill="#803E8E" transform="translate(95.6875,153.625)"/>
<path d="M0 0 C1.94277832 0.00797607 1.94277832 0.00797607 3.92480469 0.01611328 C5.89465332 0.02022217 5.89465332 0.02022217 7.90429688 0.02441406 C18.04386358 0.13281199 27.54408797 1.15205409 37.42480469 3.32861328 C38.93494141 3.59544922 38.93494141 3.59544922 40.47558594 3.86767578 C42.98730469 4.32861328 42.98730469 4.32861328 46.42480469 5.32861328 C46.91980469 6.81361328 46.91980469 6.81361328 47.42480469 8.32861328 C44.10362452 7.8265136 40.88755432 7.1960952 37.62402344 6.39111328 C21.39015838 2.47360412 5.03521803 2.50207457 -11.57519531 2.32861328 C-8.32648082 -0.92010122 -4.42758785 0.03358697 0 0 Z " fill="#0180B1" transform="translate(78.5751953125,155.67138671875)"/>
<path d="M0 0 C0 0.33 0 0.66 0 1 C-3.83724172 1.90413673 -7.37502274 2.10576898 -11.3125 2.0625 C-12.91544922 2.04896484 -12.91544922 2.04896484 -14.55078125 2.03515625 C-15.35902344 2.02355469 -16.16726562 2.01195312 -17 2 C-17 2.66 -17 3.32 -17 4 C-27.96714131 6.06134225 -38.87054854 6.57834581 -50 7 C-50 6.34 -50 5.68 -50 5 C-33.81624162 0.93372905 -16.65581906 -0.26567564 0 0 Z " fill="#2F5EA2" transform="translate(50,158)"/>
<path d="M0 0 C0.53625 0.37125 1.0725 0.7425 1.625 1.125 C-9.69244651 5.73581154 -20.18686698 6.44819308 -32.27832031 6.38574219 C-34.73788277 6.37505266 -37.19671014 6.38566832 -39.65625 6.3984375 C-48.42012269 6.40506725 -56.76868689 5.99769961 -65.375 4.125 C-65.375 3.795 -65.375 3.465 -65.375 3.125 C-64.158125 3.104375 -62.94125 3.08375 -61.6875 3.0625 C-60.66076172 3.04509766 -60.66076172 3.04509766 -59.61328125 3.02734375 C-57.375 3.125 -57.375 3.125 -55.14501953 3.6184082 C-50.12637312 4.53623751 -45.03859313 4.35036656 -39.94946289 4.36523438 C-37.97464848 4.37481969 -35.99997632 4.40595395 -34.02539062 4.4375 C-24.0130702 4.47764966 -14.59600838 3.33521185 -5.12329102 -0.03027344 C-2.375 -0.875 -2.375 -0.875 0 0 Z " fill="#1958A1" transform="translate(229.375,182.875)"/>
<path d="M0 0 C0.66 0 1.32 0 2 0 C8.74322323 14.97922108 12.40437772 31.41652309 6.65625 47.41015625 C6.4396875 47.93480469 6.223125 48.45945313 6 49 C4.86609799 45.59829396 5.28387729 43.46779968 6 40 C6.09440384 37.25951195 6.14285435 34.55178095 6.125 31.8125 C6.12089111 31.0587207 6.11678223 30.30494141 6.11254883 29.52832031 C6.23319021 18.2101699 6.23319021 18.2101699 2 8 C1.8125 5.1875 1.8125 5.1875 2 3 C1.01 2.67 0.02 2.34 -1 2 C-0.67 1.34 -0.34 0.68 0 0 Z " fill="#355A92" transform="translate(264,85)"/>
<path d="M0 0 C14.80492047 -0.92051319 29.41056272 1.79005805 44 4 C44 4.33 44 4.66 44 5 C40.08933516 4.90497594 36.17914363 4.79859878 32.26904297 4.68261719 C30.30061057 4.62644427 28.33194238 4.57873529 26.36328125 4.53125 C5.86018534 3.90679023 5.86018534 3.90679023 0 0 Z " fill="#C90A57" transform="translate(140,185)"/>
<path d="M0 0 C1 2 1 2 0.2578125 4.4609375 C-0.11601562 5.42257813 -0.48984375 6.38421875 -0.875 7.375 C-2.37221606 11.1829411 -2.37221606 11.1829411 -3.44921875 15.1171875 C-4.14918391 17.5099762 -5.3032665 18.88002132 -6.9375 20.75 C-7.46214844 21.36359375 -7.98679687 21.9771875 -8.52734375 22.609375 C-10 24 -10 24 -12 24 C-11.42128726 19.67947335 -9.8448946 16.74944513 -7.5625 13.0625 C-5.62423501 9.92647627 -4.06289625 7.19003172 -2.90234375 3.68359375 C-2 1 -2 1 0 0 Z " fill="#CA0B62" transform="translate(267,130)"/>
<path d="M0 0 C9.56470344 -0.29032827 18.57182803 0.53948097 28 2 C28 2.66 28 3.32 28 4 C29.98 4 31.96 4 34 4 C34 4.33 34 4.66 34 5 C30.02004572 4.91827887 26.04153048 4.80551266 22.0625 4.6875 C20.94552734 4.66494141 19.82855469 4.64238281 18.67773438 4.61914062 C11.8598073 4.39920749 6.35123752 3.51220742 0 1 C0 0.67 0 0.34 0 0 Z " fill="#2564A4" transform="translate(129,181)"/>
<path d="M0 0 C3.96061739 1.2639029 7.7122817 2.72983487 11.5 4.4375 C18.18884414 7.27773784 24.86079859 8.70100329 32 10 C28.25 11.125 28.25 11.125 26 10 C26 10.66 26 11.32 26 12 C26.66 12.33 27.32 12.66 28 13 C23.428721 12.45144652 19.32564205 11.58255197 15 10 C15 9.34 15 8.68 15 8 C14.195625 7.773125 13.39125 7.54625 12.5625 7.3125 C8.08714261 5.66368412 4.11278682 3.39455588 0 1 C0 0.67 0 0.34 0 0 Z " fill="#C6DA7E" transform="translate(130,165)"/>
<path d="M0 0 C1.23297404 3.69892211 0.31353049 5.01584692 -1.35083008 8.39599609 C-1.70943115 9.09031738 -2.06803223 9.78463867 -2.4375 10.5 C-2.79932373 11.2110791 -3.16114746 11.9221582 -3.53393555 12.65478516 C-11.29789208 27.53192806 -11.29789208 27.53192806 -18 32 C-16.52742074 28.8142716 -14.7055768 26.13354409 -12.625 23.3125 C-8.4347086 17.37988369 -5.50505181 11.60454931 -3.9375 4.5 C-3.628125 3.345 -3.31875 2.19 -3 1 C-2.01 0.67 -1.02 0.34 0 0 Z " fill="#EB8707" transform="translate(275,123)"/>
<path d="M0 0 C0.495 0.99 0.495 0.99 1 2 C-14.75476053 8.21981528 -28.20754197 9.44089529 -45 9 C-45 8.67 -45 8.34 -45 8 C-44.39937744 7.97494385 -43.79875488 7.9498877 -43.17993164 7.92407227 C-40.47388563 7.8084472 -37.76821717 7.68557064 -35.0625 7.5625 C-34.11697266 7.52318359 -33.17144531 7.48386719 -32.19726562 7.44335938 C-31.29814453 7.40146484 -30.39902344 7.35957031 -29.47265625 7.31640625 C-28.64000244 7.27974854 -27.80734863 7.24309082 -26.94946289 7.20532227 C-24.99661142 7.20632897 -24.99661142 7.20632897 -24 6 C-21.66905434 5.50645793 -19.34287087 5.05396843 -17 4.625 C-11.13687683 3.51044129 -5.60209534 2.06392986 0 0 Z " fill="#3BA43A" transform="translate(225,177)"/>
<path d="M0 0 C1.79244141 0.00676758 1.79244141 0.00676758 3.62109375 0.01367188 C6.53911647 0.02534397 9.45703037 0.04171674 12.375 0.0625 C12.375 0.3925 12.375 0.7225 12.375 1.0625 C11.48296875 1.12308594 10.5909375 1.18367187 9.671875 1.24609375 C7.91617188 1.37177734 7.91617188 1.37177734 6.125 1.5 C4.96484375 1.58121094 3.8046875 1.66242188 2.609375 1.74609375 C-0.43723383 1.95510112 -0.43723383 1.95510112 -2.578125 2.5859375 C-5.75458395 3.32549474 -8.87106035 3.23398652 -12.125 3.25 C-13.4346875 3.26417969 -14.744375 3.27835938 -16.09375 3.29296875 C-19.40980327 3.07654492 -20.82117785 2.6156051 -23.625 1.0625 C-15.73349953 0.06224837 -7.94697932 -0.05758681 0 0 Z " fill="#39A43E" transform="translate(80.625,158.9375)"/>
<path d="M0 0 C0.33 0.99 0.66 1.98 1 3 C-1.1847753 4.27571484 -3.37261619 5.54560673 -5.5625 6.8125 C-6.17158203 7.16892578 -6.78066406 7.52535156 -7.40820312 7.89257812 C-18.36221673 14.20997221 -18.36221673 14.20997221 -22.4375 13.6875 C-22.953125 13.460625 -23.46875 13.23375 -24 13 C-21.77796179 11.51864119 -19.75670875 10.32499305 -17.3828125 9.16015625 C-16.69316406 8.81919922 -16.00351563 8.47824219 -15.29296875 8.12695312 C-13.85549659 7.42116725 -12.4179969 6.71543746 -10.98046875 6.00976562 C-7.21758051 4.14934323 -3.56360243 2.22899838 0 0 Z " fill="#F8BA4C" transform="translate(239,162)"/>
<path d="M0 0 C9.57 0.66 19.14 1.32 29 2 C29 2.33 29 2.66 29 3 C25.7 3.33 22.4 3.66 19 4 C19 4.33 19 4.66 19 5 C12.1781317 5.38614349 6.50422293 4.00865708 0 2 C0 1.34 0 0.68 0 0 Z " fill="#F6E789" transform="translate(156,175)"/>
<path d="M0 0 C1.05638672 0.00902344 2.11277344 0.01804688 3.20117188 0.02734375 C5.78019253 0.0506833 8.3587199 0.08342225 10.9375 0.125 C10.9375 0.455 10.9375 0.785 10.9375 1.125 C6.70178669 1.55350983 2.4659456 1.98072674 -1.77001953 2.40673828 C-3.21146177 2.55188914 -4.65286829 2.69739521 -6.09423828 2.84326172 C-8.16429537 3.05268938 -10.23447696 3.26084538 -12.3046875 3.46875 C-13.5510498 3.59443359 -14.79741211 3.72011719 -16.08154297 3.84960938 C-19.0625 4.125 -19.0625 4.125 -21.0625 4.125 C-21.0625 3.465 -21.0625 2.805 -21.0625 2.125 C-13.91057616 0.23074697 -7.37761339 -0.12102079 0 0 Z " fill="#F5AA31" transform="translate(49.0625,152.875)"/>
<path d="M0 0 C5.59001075 -0.37266738 10.02771012 0.72526472 15.3515625 2.44140625 C17.9972906 3.18685767 17.9972906 3.18685767 20.62890625 2.4375 C23 2 23 2 24.80078125 2.99609375 C26.20052083 4.33072917 27.60026042 5.66536458 29 7 C25.30000458 8.23333181 24.28032878 7.59184133 20.6875 6.25 C13.88537454 3.85218833 7.07495552 2.38150019 0 1 C0 0.67 0 0.34 0 0 Z " fill="#09978A" transform="translate(104,160)"/>
<path d="M0 0 C0.33 0.99 0.66 1.98 1 3 C1.66 3 2.32 3 3 3 C1.4169423 7.2742558 -1.50568404 9.26531794 -5 12 C-5 11.34 -5 10.68 -5 10 C-6.65 10.66 -8.3 11.32 -10 12 C-9.61328125 11.55269531 -9.2265625 11.10539063 -8.828125 10.64453125 C-5.81609925 7.1478974 -2.85678969 3.62592537 0 0 Z " fill="#DB2036" transform="translate(254,151)"/>
<path d="M0 0 C6.49850211 0.51553879 12.66226532 1.46667709 19 3 C19 3.33 19 3.66 19 4 C14.14270355 4.97299156 9.5499375 5.12038805 4.625 5.0625 C3.88894531 5.05798828 3.15289062 5.05347656 2.39453125 5.04882812 C0.59631842 5.03715142 -1.20185197 5.01922011 -3 5 C-3 4.67 -3 4.34 -3 4 C-1.02 3.67 0.96 3.34 3 3 C2.01 2.01 1.02 1.02 0 0 Z " fill="#856492" transform="translate(172,172)"/>
<path d="M0 0 C2.27076842 -0.02699725 4.54162821 -0.04639453 6.8125 -0.0625 C8.07707031 -0.07410156 9.34164062 -0.08570313 10.64453125 -0.09765625 C14 0 14 0 17 1 C19.39254576 1.22560676 21.78928123 1.40848595 24.1875 1.5625 C26.09595703 1.68818359 26.09595703 1.68818359 28.04296875 1.81640625 C29.01878906 1.87699219 29.99460938 1.93757812 31 2 C31 2.33 31 2.66 31 3 C20.46890579 3.1982842 10.34614155 3.31290989 0 1 C0 0.67 0 0.34 0 0 Z " fill="#FEE385" transform="translate(157,191)"/>
<path d="M0 0 C4.19310302 2.20807021 6.77921658 4.76389701 9.75 8.4375 C10.91789062 9.85869141 10.91789062 9.85869141 12.109375 11.30859375 C13.78762378 13.69767104 14.59680503 15.15747546 15 18 C11.34177798 14.4526332 7.98336055 10.72300269 4.6484375 6.87109375 C2.84667474 4.82596494 0.966148 2.88750208 -1 1 C-0.67 0.67 -0.34 0.34 0 0 Z " fill="#0E57A2" transform="translate(250,67)"/>
<path d="M0 0 C0 0.33 0 0.66 0 1 C-0.84304687 1.06058594 -1.68609375 1.12117187 -2.5546875 1.18359375 C-3.65039062 1.26738281 -4.74609375 1.35117188 -5.875 1.4375 C-6.96554688 1.51871094 -8.05609375 1.59992188 -9.1796875 1.68359375 C-11.94728971 1.83001703 -11.94728971 1.83001703 -14 3 C-16.71760108 3.07181821 -19.40859388 3.09299506 -22.125 3.0625 C-22.87910156 3.05798828 -23.63320313 3.05347656 -24.41015625 3.04882812 C-26.27347127 3.03703499 -28.13674555 3.01909942 -30 3 C-30 2.67 -30 2.34 -30 2 C-19.87410311 0.22796804 -10.2455423 -0.23950618 0 0 Z " fill="#524896" transform="translate(81,155)"/>
<path d="M0 0 C-3.39883814 1.84556076 -6.87803706 3.02641213 -10.5625 4.1875 C-11.69816406 4.55230469 -12.83382812 4.91710937 -14.00390625 5.29296875 C-17 6 -17 6 -20 5 C-13.01735809 0.6109108 -8.16580804 -0.28540688 0 0 Z " fill="#0083B4" transform="translate(263,169)"/>
<path d="M0 0 C8.91 1.98 8.91 1.98 18 4 C18 4.33 18 4.66 18 5 C11.59646678 5.2361959 6.15370839 4.823321 0 3 C0 2.01 0 1.02 0 0 Z " fill="#0D56A1" transform="translate(162,171)"/>
<path d="M0 0 C0.66 0 1.32 0 2 0 C2.8680908 1.91040052 3.71901783 3.82860737 4.5625 5.75 C5.03816406 6.81734375 5.51382812 7.8846875 6.00390625 8.984375 C6.9946154 11.98369837 7.16161779 13.13421241 6 16 C1.40774487 7.738041 1.40774487 7.738041 2 3 C1.01 2.67 0.02 2.34 -1 2 C-0.67 1.34 -0.34 0.68 0 0 Z " fill="#0C72A8" transform="translate(264,85)"/>
<path d="M0 0 C5.66104589 0.49658297 9.87674471 1.54510684 15 4 C11.83454798 5.58272601 9.25581122 4.33086619 5.875 3.5625 C3.95300781 3.13130859 3.95300781 3.13130859 1.9921875 2.69140625 C0.51105469 2.34916016 0.51105469 2.34916016 -1 2 C-0.67 1.34 -0.34 0.68 0 0 Z " fill="#2693B0" transform="translate(146,170)"/>
<path d="M0 0 C0.66 0 1.32 0 2 0 C3.18681726 3.56045177 3.09689832 6.43808337 3.0625 10.1875 C3.05347656 11.45980469 3.04445313 12.73210937 3.03515625 14.04296875 C3.02355469 15.01878906 3.01195312 15.99460937 3 17 C2.67 17 2.34 17 2 17 C1.66151348 15.10507994 1.32943089 13.20901534 1 11.3125 C0.814375 10.25675781 0.62875 9.20101562 0.4375 8.11328125 C0.04931926 5.35095938 -0.08259976 2.78257957 0 0 Z " fill="#FEE587" transform="translate(279,70)"/>
<path d="M0 0 C-1.38009621 3.33523252 -2.84950652 5.18607951 -6 7 C-6.99 6.67 -7.98 6.34 -9 6 C-6.65405099 2.48107648 -4.44674901 0 0 0 Z " fill="#D7023F" transform="translate(249,161)"/>
<path d="M0 0 C3.25914951 3.08297927 6.06553673 5.9161331 8 10 C7.67 10.99 7.34 11.98 7 13 C5.82479354 11.40207898 4.66008753 9.79643092 3.5 8.1875 C2.8503125 7.29417969 2.200625 6.40085937 1.53125 5.48046875 C0 3 0 3 0 0 Z " fill="#5AA533" transform="translate(262,88)"/>
<path d="M0 0 C0.33 0.66 0.66 1.32 1 2 C1.99 2 2.98 2 4 2 C5.48320272 5.83887763 6.22419163 8.06204091 5 12 C4.15885829 10.56705502 3.32734313 9.12845595 2.5 7.6875 C1.80390625 6.48673828 1.80390625 6.48673828 1.09375 5.26171875 C0 3 0 3 0 0 Z " fill="#CC0055" transform="translate(268,83)"/>
<path d="M0 0 C0.33 0.66 0.66 1.32 1 2 C-0.21484375 4.3828125 -0.21484375 4.3828125 -1.9375 7.125 C-2.50339844 8.03507813 -3.06929688 8.94515625 -3.65234375 9.8828125 C-4.09707031 10.58148438 -4.54179687 11.28015625 -5 12 C-5.99 11.67 -6.98 11.34 -8 11 C-5.36 7.37 -2.72 3.74 0 0 Z " fill="#F6AD50" transform="translate(263,135)"/>
<path d="M0 0 C3.91402949 1.26941497 5.79072873 2.51167694 8 6 C2.46153846 5.38461538 2.46153846 5.38461538 0.125 3.4375 C-0.24625 2.963125 -0.6175 2.48875 -1 2 C-0.67 1.34 -0.34 0.68 0 0 Z " fill="#279E9C" transform="translate(125,162)"/>
<path d="M0 0 C1 3 1 3 0 6 C-2.0625 7.6875 -2.0625 7.6875 -4 9 C-3.67 6.36 -3.34 3.72 -3 1 C-2.01 0.67 -1.02 0.34 0 0 Z " fill="#E96D09" transform="translate(275,123)"/>
<path d="M0 0 C0.66 0.66 1.32 1.32 2 2 C-0.97 6.95 -0.97 6.95 -4 12 C-4.33 11.34 -4.66 10.68 -5 10 C-4.0625 7.375 -4.0625 7.375 -3 5 C-2.34 5 -1.68 5 -1 5 C-0.67 3.35 -0.34 1.7 0 0 Z " fill="#A71E70" transform="translate(268,133)"/>
<path d="M0 0 C1.32 0.66 2.64 1.32 4 2 C-0.95 3.485 -0.95 3.485 -6 5 C-3 1 -3 1 0 0 Z " fill="#0F57A1" transform="translate(227,182)"/>
<path d="M0 0 C0 0.66 0 1.32 0 2 C-3.375 2.625 -3.375 2.625 -7 3 C-7.66 2.34 -8.32 1.68 -9 1 C-5.846632 0.29925156 -3.27275026 0 0 0 Z " fill="#F9BD51" transform="translate(208,177)"/>
</svg>
